<?xml version="1.0" encoding="UTF-8"?>
<svg id="Layer_1" xmlns="http://www.w3.org/2000/svg" version="1.1" viewBox="0 0 1080 1080">
  <!-- Generator: Adobe Illustrator 30.3.0, SVG Export Plug-In . SVG Version: 2.1.3 Build 182)  -->
  <defs>
    <style>
      .st0 {
        fill: none;
        stroke: #FF6B35;
        stroke-width: 8px;
      }
    </style>
  </defs>
  <path class="st0" d="M67.5,770.3l63.6-215.7c7-23.4,21-38.3,40-42.4l180.9-40c42.6-9.4,50.5,13,36.2,61.6-9,31.2-22.2,53.3-39.1,67.1,13.1,7.9,16.3,28.7,5.8,64.6-13.4,45.3-39.7,83.7-82.3,93.1l-186.7,41.3c-19,4.2-25.4-6.2-18.4-29.5ZM201.7,740.6l5.8-1.3c7.6-1.7,13.1-7.6,15.8-16.9l18.1-60.5c2.6-9.3,0-13.4-7.6-11.8l-5.8,1.3c-7.6,1.7-13.1,7.6-15.8,16.9l-18.1,60.5c-2.6,9.3,0,13.4,7.6,11.8ZM238.5,615.5l5.8-1.3c7.6-1.7,13.4-7.7,16-17l18.4-61.9c2.6-9.3,0-13.4-7.6-11.8l-5.8,1.3c-7.6,1.7-13.1,7.6-15.8,16.9l-18.4,61.9c-2.6,9.3-.3,13.5,7.3,11.8Z"/>
  <path class="st0" d="M392.5,631.2l21-71.9c20.7-70.1,62.7-114.7,119.6-127.3l99.2-21.9c56.9-12.6,78.2,12,61,70.5-7,23.4-21,38.3-40,42.4l-64.2,14.2c-19,4.2-25.4-6.2-18.4-29.5l11.7-39.5c2.6-9.3,0-13.4-7.6-11.8l-5.8,1.3c-7.6,1.7-13.1,7.6-15.8,16.9l-55.4,187c-2.6,9.3,0,13.4,7.6,11.8l5.8-1.3c7.6-1.7,13.1-7.6,15.8-16.9l12.8-43.2c7-23.4,20.7-38.2,39.7-42.4l64.2-14.2c19-4.2,25.7,6.1,18.7,29.5l-6.4,21.6c-13.7,46.7-41.7,76.4-79.6,84.8l-128.4,28.4c-56.9,12.6-76.1-18.5-55.4-88.6Z"/>
  <path class="st0" d="M674.6,636l8.5-28.8c7-23.4,20.7-38.2,39.7-42.4l64.2-14.2c19-4.2,25.7,6.1,18.7,29.5l-4.4,14.4c-2.6,9.3,0,13.4,7.6,11.8l5.8-1.3c7.6-1.7,13.1-7.6,15.8-16.9l18.1-61.1c2.9-9.4.3-13.5-7.3-11.8l-81.7,18.1c-37.9,8.4-51.1-12.2-37.1-59l5.3-18c13.7-46.7,41.7-76.4,79.6-84.8l186.7-41.3c19-4.2,25.4,6.2,18.4,29.5l-8.5,28.8c-7,23.4-20.7,38.2-39.7,42.4l-64.2,14.2c-19,4.2-25.7-6.1-18.7-29.5l4.4-14.4c2.6-9.3,0-13.4-7.6-11.8l-5.8,1.3c-7.6,1.7-13.1,7.6-15.8,16.9l-18.1,61.1c-2.9,9.4-.3,13.5,7.3,11.8l81.7-18.1c37.9-8.4,51.1,12.2,37.1,59l-5.3,18c-13.7,46.7-41.7,76.4-79.6,84.8l-186.7,41.3c-19,4.2-25.4-6.2-18.4-29.5Z"/>
</svg>